<!--?xml version="1.0" standalone="no"?-->
              <svg id="sw-js-blob-svg" viewBox="0 0 100 100" xmlns="http://www.w3.org/2000/svg" version="1.1">
                    <defs> 
                        <linearGradient id="sw-gradient" x1="0" x2="1" y1="1" y2="0">
                            <stop id="stop1" stop-color="rgba(56.651, 83.227, 68.822, 1)" offset="0%"></stop>
                            <stop id="stop2" stop-color="rgba(102.645, 167.468, 138.92, 1)" offset="100%"></stop>
                        </linearGradient>
                    </defs>
                <path fill="url(#sw-gradient)" d="M17.7,-19C21.1,-18.2,20.7,-10.9,19.1,-5.5C17.4,-0.2,14.4,3.2,13,9.1C11.5,15,11.6,23.5,8.4,25.7C5.3,28,-1,24,-7.6,21.4C-14.1,18.7,-20.9,17.4,-22.1,13.6C-23.3,9.8,-18.9,3.6,-16.6,-1.8C-14.3,-7.3,-14.2,-12,-11.7,-13C-9.3,-14,-4.7,-11.3,1.2,-12.7C7.1,-14.2,14.3,-19.8,17.7,-19Z" width="100%" height="100%" transform="translate(50 50)" stroke-width="0" style="transition: 0.3s;" stroke="url(#sw-gradient)"></path>
              </svg>