<!--?xml version="1.0" standalone="no"?-->
              <svg id="sw-js-blob-svg" viewBox="0 0 100 100" xmlns="http://www.w3.org/2000/svg" version="1.1">
                    <defs> 
                        <linearGradient id="sw-gradient" x1="0" x2="1" y1="1" y2="0">
                            <stop id="stop1" stop-color="rgba(56.651, 83.227, 68.822, 1)" offset="0%"></stop>
                            <stop id="stop2" stop-color="rgba(102.645, 116.96, 167.468, 1)" offset="100%"></stop>
                        </linearGradient>
                    </defs>
                <path fill="url(#sw-gradient)" d="M14.3,-14.7C20.3,-12,28.2,-9.2,31.1,-3.8C34,1.5,31.9,9.4,27.3,14.2C22.6,18.9,15.4,20.7,9.1,21.5C2.7,22.4,-2.7,22.3,-5.6,19.5C-8.5,16.6,-8.9,11,-11.1,6.6C-13.4,2.3,-17.4,-0.7,-19.5,-6C-21.6,-11.2,-21.8,-18.6,-18.2,-21.7C-14.6,-24.9,-7.3,-23.6,-1.6,-21.8C4.1,-19.9,8.3,-17.3,14.3,-14.7Z" width="100%" height="100%" transform="translate(50 50)" stroke-width="0" style="transition: 0.3s;" stroke="url(#sw-gradient)"></path>
              </svg>