<!--?xml version="1.0" standalone="no"?-->
              <svg id="sw-js-blob-svg" viewBox="0 0 100 100" xmlns="http://www.w3.org/2000/svg" version="1.1">
                    <defs> 
                        <linearGradient id="sw-gradient" x1="0" x2="1" y1="1" y2="0">
                            <stop id="stop1" stop-color="rgba(77.308, 137.572, 178.852, 1)" offset="0%"></stop>
                            <stop id="stop2" stop-color="rgba(141.898, 205.189, 255, 1)" offset="100%"></stop>
                        </linearGradient>
                    </defs>
                <path fill="url(#sw-gradient)" d="M17.3,-17.3C24.1,-14.9,32.4,-11.1,35.9,-4.4C39.3,2.3,38,11.7,33.1,18.3C28.3,24.8,20,28.6,12.4,29.1C4.9,29.7,-2,27.1,-8.2,24.1C-14.4,21.2,-19.8,17.9,-25.3,12.6C-30.7,7.3,-36.2,0,-35.6,-6.8C-35,-13.6,-28.4,-19.8,-21.5,-22.2C-14.6,-24.6,-7.3,-23.1,-1,-21.9C5.3,-20.7,10.5,-19.7,17.3,-17.3Z" width="100%" height="100%" transform="translate(50 50)" stroke-width="0" style="transition: 0.3s;" stroke="url(#sw-gradient)"></path>
              </svg>