<!--?xml version="1.0" standalone="no"?-->
              <svg id="sw-js-blob-svg" viewBox="0 0 100 100" xmlns="http://www.w3.org/2000/svg" version="1.1">
                    <defs> 
                        <linearGradient id="sw-gradient" x1="0" x2="1" y1="1" y2="0">
                            <stop id="stop1" stop-color="rgba(78.241, 183.406, 126.402, 1)" offset="0%"></stop>
                            <stop id="stop2" stop-color="rgba(141.898, 255, 193.694, 1)" offset="100%"></stop>
                        </linearGradient>
                    </defs>
                <path fill="url(#sw-gradient)" d="M14.8,-17.4C17.2,-15.6,15.7,-9.1,15.5,-3.7C15.2,1.6,16.2,5.8,15.5,10.8C14.8,15.9,12.5,22,7.9,25.1C3.3,28.3,-3.6,28.7,-9.5,26.4C-15.4,24.2,-20.3,19.3,-26.3,13.1C-32.3,6.9,-39.5,-0.7,-39.2,-7.8C-39,-14.9,-31.3,-21.5,-23.5,-22.4C-15.8,-23.2,-7.9,-18.3,-0.8,-17.3C6.2,-16.3,12.4,-19.2,14.8,-17.4Z" width="100%" height="100%" transform="translate(50 50)" stroke-width="0" style="transition: 0.3s;" stroke="url(#sw-gradient)"></path>
              </svg>