<!--?xml version="1.0" standalone="no"?-->
              <svg id="sw-js-blob-svg" viewBox="0 0 100 100" xmlns="http://www.w3.org/2000/svg" version="1.1">
                    <defs> 
                        <linearGradient id="sw-gradient" x1="0" x2="1" y1="1" y2="0">
                            <stop id="stop1" stop-color="rgba(233.495, 75.009, 0, 1)" offset="0%"></stop>
                            <stop id="stop2" stop-color="rgba(255, 141.898, 141.898, 1)" offset="100%"></stop>
                        </linearGradient>
                    </defs>
                <path fill="url(#sw-gradient)" d="M10,-20.8C11.7,-14.5,11,-9.6,15.8,-5.4C20.5,-1.2,30.7,2.3,31.1,4.9C31.4,7.5,21.9,9.1,16.5,12.9C11.1,16.7,9.7,22.6,7,23.1C4.2,23.6,0,18.8,-7.1,19C-14.2,19.3,-24.3,24.5,-30.5,23.2C-36.8,21.9,-39.1,13.9,-35.5,8C-31.8,2.1,-22.1,-1.8,-19.5,-9.6C-17,-17.4,-21.7,-29.2,-19.6,-35.5C-17.6,-41.7,-8.8,-42.4,-2.3,-38.8C4.1,-35.1,8.3,-27.2,10,-20.8Z" width="100%" height="100%" transform="translate(50 50)" stroke-width="0" style="transition: 0.3s;"></path>
              </svg>